Complete name                            : FIM Endurance World Championship 2012 Season Review MotorsTV (EDTV).m4v
Format                                   : MPEG-4
Format profile                           : Base Media / Version 2
Codec ID                                 : mp42
File size                                : 1.81 GiB
Duration                                 : 2h 27mn
Overall bit rate mode                    : Variable
Overall bit rate                         : 1 756 Kbps
Movie name                               : FIM Endurance World Championship 2012 Season Review
Genre                                    : Sports
Tagged date                              : UTC 2013-01-27 21:57:49
Writing application                      : TMPGEnc Video Mastering Works 5 Version. 5.3.1.85
Cover                                    : Yes
tvsn                                     : 2012
stik                                     : 10
rtng                                     : 0

Video #1
ID                                       : 2
Format                                   : AVC
Format/Info                              : Advanced Video Codec
Format profile                           : Main@L3.0
Format settings, CABAC                   : Yes
Format settings, ReFrames                : 5 frames
Codec ID                                 : avc1
Codec ID/Info                            : Advanced Video Coding
Duration                                 : 2h 27mn
Bit rate mode                            : Variable
Bit rate                                 : 1 657 Kbps
Nominal bit rate                         : 1 650 Mbps
Maximum bit rate                         : 8 000 Kbps
Width                                    : 720 pixels
Height                                   : 576 pixels
Display aspect ratio                     : 16:9
Frame rate mode                          : Constant
Frame rate                               : 25.000 fps
Standard                                 : NTSC
Color space                              : YUV
Chroma subsampling                       : 4:2:0
Bit depth                                : 8 bits
Scan type                                : Progressive
Bits/(Pixel*Frame)                       : 0.160
Stream size                              : 1.71 GiB (94%)
Writing library                          : x264 core 124
Encoding settings                        : cabac=1 / ref=5 / deblock=1:0:0 / analyse=0x1:0x111 / me=hex / subme=7 / psy=1 / psy_rd=1.00:0.00 / mixed_ref=1 / me_range=16 / chroma_me=1 / trellis=1 / 8x8dct=0 / cqm=0 / deadzone=21,11 / fast_pskip=1 / chroma_qp_offset=-2 / threads=12 / sliced_threads=0 / slices=1 / nr=0 / decimate=1 / interlaced=0 / bluray_compat=0 / constrained_intra=0 / bframes=3 / b_pyramid=0 / b_adapt=1 / b_bias=0 / direct=1 / weightb=1 / open_gop=0 / weightp=1 / keyint=250 / keyint_min=25 / scenecut=40 / intra_refresh=0 / rc_lookahead=40 / rc=abr / mbtree=1 / bitrate=1650000 / ratetol=1.0 / qcomp=0.60 / qpmin=0 / qpmax=69 / qpstep=4 / vbv_maxrate=8000000 / vbv_bufsize=8000000 / nal_hrd=vbr / ip_ratio=1.40 / aq=1:1.00
Language                                 : English
Color primaries                          : BT.601 NTSC
Transfer characteristics                 : BT.601
Matrix coefficients                      : BT.601

Audio
ID                                       : 1
Format                                   : AAC
Format/Info                              : Advanced Audio Codec
Format profile                           : HE-AAC / LC
Codec ID                                 : 40
Duration                                 : 2h 27mn
Bit rate mode                            : Variable
Bit rate                                 : 96.0 Kbps
Maximum bit rate                         : 100 Kbps
Channel(s)                               : 2 channels
Channel positions                        : Front: L R
Sampling rate                            : 48.0 KHz / 24.0 KHz
Compression mode                         : Lossy
Delay relative to video                  : 40ms
Stream size                              : 100 MiB (5%)
Language                                 : English